<?xml version="1.0" encoding="UTF-8" standalone="no"?>
<svg width="10px" height="17px" viewBox="0 0 10 17" version="1.1" xmlns="http://www.w3.org/2000/svg" xmlns:xlink="http://www.w3.org/1999/xlink" xmlns:sketch="http://www.bohemiancoding.com/sketch/ns">
    <!-- Generator: Sketch 3.4 (15588) - http://www.bohemiancoding.com/sketch -->
    <title>Group</title>
    <desc>Created with Sketch.</desc>
    <defs></defs>
    <g id="Welcome" stroke="none" stroke-width="1" fill="none" fill-rule="evenodd" sketch:type="MSPage">
        <g id="Contact-(Requests)" sketch:type="MSArtboardGroup" transform="translate(-199.000000, -166.000000)" fill="#424242">
            <g id="hand_of_god-+-Line-+-facebook" sketch:type="MSLayerGroup" transform="translate(199.000000, 165.000000)">
                <g id="facebook" transform="translate(0.000000, 1.000000)" sketch:type="MSShapeGroup">
                    <g id="Group">
                        <path d="M9.16635526,0.950210526 C9.14555263,0.823605263 9.05786842,0.717578947 8.93775,0.673513158 C8.20473684,0.405986842 7.23596053,0.140921053 6.19627632,0.14025 C5.38072368,0.140026316 4.51663158,0.306447368 3.71338158,0.774842105 L3.71338158,0.774842105 C3.30896053,1.00993421 2.99021053,1.30721053 2.74751316,1.64184211 C2.38223684,2.14446053 2.18785526,2.72290789 2.07825,3.31007895 C1.98989474,3.78496053 1.95656579,4.26878947 1.93867105,4.73785526 C1.72930263,4.74277632 1.49197368,4.74434211 1.27589474,4.74434211 C1.08688158,4.74434211 0.913973684,4.74322368 0.788039474,4.74188158 C0.725184211,4.74121053 0.674407895,4.74076316 0.639065789,4.74031579 C0.603723684,4.73964474 0.584934211,4.73942105 0.584486842,4.73942105 C0.489644737,4.73807895 0.396592105,4.77565789 0.328815789,4.84209211 C0.261263158,4.90897368 0.222789474,5.00180263 0.223460526,5.09686842 L0.237552632,7.45897368 C0.238894737,7.65581579 0.398157895,7.82894737 0.594552632,7.82894737 L0.842618421,7.82894737 C1.19044737,7.82894737 1.83957895,7.81396053 2.33861842,7.82380263 C2.41243421,9.44640789 2.42988158,11.8780789 2.42988158,13.7648553 C2.42988158,14.5602763 2.42652632,15.2534737 2.42384211,15.7527368 C2.42205263,16.0016974 2.42071053,16.1996579 2.41936842,16.337 C2.41825,16.4741184 2.41757895,16.5474868 2.41757895,16.5479342 C2.41668421,16.6427763 2.45381579,16.7342632 2.52114474,16.8018158 C2.58825,16.8689211 2.67996053,16.9065 2.77502632,16.9060526 L5.93657895,16.8901711 C6.03164474,16.8897237 6.12111842,16.8516974 6.18777632,16.7839211 C6.25465789,16.7163684 6.29111842,16.6262237 6.29022368,16.5309342 C6.29022368,16.5309342 6.27367105,14.5868947 6.25421053,12.4898553 C6.23765789,10.6865132 6.21931579,8.77267105 6.20880263,7.88128947 C6.40385526,7.87793421 6.63111842,7.87659211 6.85211842,7.87681579 C7.11047368,7.87681579 7.36189474,7.87838158 7.54844737,7.87994737 C7.6415,7.88061842 7.71867105,7.88151316 7.77213158,7.88218421 C7.82603947,7.88285526 7.85601316,7.88307895 7.85601316,7.88307895 C7.95107895,7.88442105 8.04256579,7.84751316 8.11034211,7.78085526 C8.17811842,7.71419737 8.21636842,7.62338158 8.21659211,7.52831579 L8.22061842,5.34046053 C8.22084211,5.24539474 8.18348684,5.12348684 8.11615789,5.05660526 C8.04905263,4.98972368 7.95868421,4.92127632 7.86339474,4.92127632 L7.74528947,4.92127632 C7.66968421,4.92127632 7.56209211,4.95348684 7.43302632,4.95348684 C7.03643421,4.95348684 6.43651316,4.96757895 5.96185526,4.95952632 C5.97035526,4.71682895 5.99227632,4.51036842 6.02806579,4.32739474 C6.06251316,4.14934211 6.10993421,4.00506579 6.16585526,3.88628947 C6.20790789,3.79726316 6.25465789,3.72702632 6.30476316,3.66819737 C6.38081579,3.58006579 6.46313158,3.52056579 6.56915789,3.47627632 C6.67496053,3.43243421 6.80805263,3.40626316 6.9785,3.40603947 C7.28114474,3.40514474 7.69675,3.49461842 8.21726316,3.69571053 C8.22106579,3.69727632 8.22531579,3.69772368 8.22934211,3.69928947 C8.23359211,3.70063158 8.23694737,3.70309211 8.24119737,3.70421053 C8.24880263,3.70667105 8.25640789,3.70689474 8.26401316,3.70868421 C8.27609211,3.71159211 8.28794737,3.71427632 8.29980263,3.71584211 C8.31143421,3.71718421 8.32284211,3.71763158 8.33402632,3.71807895 C8.34588158,3.71830263 8.35728947,3.71852632 8.36914474,3.71785526 C8.38077632,3.71696053 8.39196053,3.71539474 8.40292105,3.71338158 C8.41432895,3.71159211 8.42573684,3.70935526 8.43669737,3.70644737 C8.44743421,3.70353947 8.45817105,3.69973684 8.46846053,3.69571053 C8.47942105,3.69190789 8.49015789,3.68765789 8.50044737,3.68251316 C8.51051316,3.67759211 8.51990789,3.672 8.52952632,3.66618421 C8.53936842,3.66014474 8.54921053,3.65365789 8.55860526,3.64672368 C8.56755263,3.64023684 8.57560526,3.63285526 8.58365789,3.62525 C8.59260526,3.61719737 8.60110526,3.60914474 8.60871053,3.60042105 C8.61631579,3.59192105 8.62302632,3.58297368 8.62996053,3.57380263 C8.63689474,3.56440789 8.64382895,3.55478947 8.64986842,3.5445 C8.65568421,3.53465789 8.66082895,3.52369737 8.66597368,3.51273684 C8.66932895,3.50557895 8.67357895,3.49909211 8.67648684,3.49148684 C8.67827632,3.48746053 8.67872368,3.48321053 8.68028947,3.47873684 C8.68140789,3.47493421 8.68386842,3.47157895 8.68498684,3.46755263 C8.75678947,3.23089474 8.88003947,2.83430263 8.98584211,2.41578947 C9.03863158,2.20597368 9.08761842,1.99034211 9.12385526,1.78253947 C9.15986842,1.57451316 9.18425,1.37588158 9.18447368,1.19067105 C9.18402632,1.10880263 9.17910526,1.02939474 9.16635526,0.950210526 L9.16635526,0.950210526 Z M6.18419737,2.87232895 C6.00815789,2.96336842 5.85471053,3.09176316 5.73190789,3.24632895 C5.54692105,3.47896053 5.42792105,3.76415789 5.35321053,4.08872368 C5.2785,4.41396053 5.24651316,4.78259211 5.24651316,5.19819737 C5.24651316,5.24069737 5.24696053,5.28386842 5.24740789,5.32748684 C5.25053947,5.51739474 5.40197368,5.61917105 5.59188158,5.62543421 C6.09763158,5.64153947 6.92638158,5.59210526 7.43280263,5.59210526 L7.50885526,5.59210526 L7.50617105,7.11606579 C7.32431579,7.11472368 7.09190789,7.13932895 6.85211842,7.13932895 C6.47342105,7.13932895 6.08130263,7.15565789 5.831,7.16796053 C5.63930263,7.17757895 5.49032895,7.34310526 5.49301316,7.53502632 C5.50263158,8.14255263 5.52410526,10.3966184 5.54334211,12.4929868 C5.55296053,13.5413947 5.56190789,14.5533421 5.56861842,15.3013421 C5.57175,15.6643816 5.57443421,15.9656842 5.57622368,16.1795263 L3.13180263,16.1925 C3.13560526,15.7211974 3.14075,14.8271316 3.14075,13.7559079 C3.14075,11.7308947 3.12151316,9.07956579 3.03248684,7.44130263 C3.02264474,7.25698684 2.87456579,7.11181579 2.69025,7.10532895 C2.20865789,7.08832895 1.40831579,7.08519737 0.946855263,7.08497368 L0.937013158,5.45431579 C1.03767105,5.45498684 1.15353947,5.45565789 1.27611842,5.45565789 C1.62372368,5.45543421 2.02232895,5.45185526 2.30394737,5.43552632 C2.48826316,5.42501316 2.63410526,5.27447368 2.63880263,5.09015789 C2.65803947,4.34193421 2.70053947,3.58230263 2.89939474,2.93630263 C2.99848684,2.61285526 3.13471053,2.31848684 3.32282895,2.05968421 C3.51139474,1.80110526 3.75096053,1.57607895 4.07172368,1.38907895 L4.07172368,1.38907895 C4.74568421,0.996736842 5.47534211,0.851565789 6.19672368,0.851342105 C7.01786842,0.850671053 7.82111842,1.04326316 8.47092105,1.26336842 C8.46577632,1.37453947 8.44922368,1.51165789 8.42327632,1.66040789 C8.37540789,1.93509211 8.29778947,2.24780263 8.21882895,2.53411842 C8.18259211,2.66519737 8.14635526,2.79001316 8.11213158,2.90498684 C7.69272368,2.76921053 7.31917105,2.69606579 6.9785,2.69539474 C6.68860526,2.69517105 6.41928947,2.74997368 6.18419737,2.87232895 L6.18419737,2.87232895 Z" id="Shape"></path>
                    </g>
                </g>
            </g>
        </g>
    </g>
</svg>
