<?xml version="1.0" encoding="UTF-8" standalone="no"?>
<svg width="21px" height="17px" viewBox="0 0 21 17" version="1.1" xmlns="http://www.w3.org/2000/svg" xmlns:xlink="http://www.w3.org/1999/xlink" xmlns:sketch="http://www.bohemiancoding.com/sketch/ns">
    <!-- Generator: Sketch 3.4 (15588) - http://www.bohemiancoding.com/sketch -->
    <title>Group</title>
    <desc>Created with Sketch.</desc>
    <defs></defs>
    <g id="Welcome" stroke="none" stroke-width="1" fill="none" fill-rule="evenodd" sketch:type="MSPage">
        <g id="Contact-(Requests)" sketch:type="MSArtboardGroup" transform="translate(-344.000000, -166.000000)" fill="#424242">
            <g id="hand_of_god-+-Line-+-twitter" sketch:type="MSLayerGroup" transform="translate(344.000000, 165.000000)">
                <g id="twitter" transform="translate(0.000000, 1.000000)" sketch:type="MSShapeGroup">
                    <g id="Group">
                        <path d="M20.4947879,2.16930303 C20.4051515,2.05545455 20.2627121,1.99827273 20.1195,2.01887879 C20.0345,2.03098485 19.9270909,2.05210606 19.788,2.0825 C19.658697,2.11057576 19.500803,2.14792424 19.3246212,2.19171212 C19.3921061,2.03716667 19.4490303,1.87643939 19.4997727,1.70875758 C19.5824545,1.43315152 19.6512273,1.1400303 19.7225758,0.829136364 C19.7586364,0.67330303 19.6999091,0.511030303 19.5721515,0.414181818 C19.4441364,0.317590909 19.2720758,0.305484848 19.1314394,0.382757576 C18.4998636,0.731257576 18.0277273,0.952257576 17.6194697,1.09675758 C17.2750909,1.21833333 16.9734697,1.28762121 16.6414545,1.33475758 C16.252,0.967712121 15.8151515,0.685409091 15.3466212,0.492227273 C14.8178182,0.273030303 14.2511515,0.166136364 13.6723788,0.166136364 C12.9800152,0.166393939 12.2701364,0.318363636 11.5764848,0.610712121 L11.5764848,0.610712121 C11.2393182,0.752893939 10.9258485,0.963848485 10.6422576,1.22142424 C10.2172576,1.60856061 9.8589697,2.10181818 9.60268182,2.65174242 C9.34639394,3.20166667 9.19184848,3.80877273 9.19159091,4.42412121 C9.19159091,4.48877273 9.19390909,4.55368182 9.197,4.61807576 C9.18618182,4.61524242 9.17613636,4.61266667 9.16557576,4.60983333 C8.42916667,4.41459091 7.29506061,4.02822727 6.16945455,3.52621212 C5.70787879,3.32118182 5.06960606,2.91163636 4.44704545,2.38412121 C3.82268182,1.85737879 3.20836364,1.21060606 2.76430303,0.538075758 C2.69733333,0.436333333 2.58837879,0.370651515 2.46731818,0.358287879 C2.34625758,0.345924242 2.2259697,0.388681818 2.13993939,0.474712121 C1.94675758,0.666863636 1.78345455,0.845106061 1.64333333,1.02257576 C1.43366667,1.28839394 1.27809091,1.55730303 1.173,1.85016667 C1.06739394,2.1430303 1.01227273,2.45212121 0.978787879,2.8060303 C0.955863636,3.04480303 0.940666667,3.30160606 0.940666667,3.56665152 C0.94169697,4.15160606 1.01356061,4.77880303 1.26443939,5.3475303 C1.07331818,5.37045455 0.921348485,5.52525758 0.907954545,5.7205 C0.897393939,5.87324242 0.892242424,6.02263636 0.892242424,6.16919697 C0.891469697,7.48875758 1.31234848,8.56284848 1.97277273,9.3085303 C2.03716667,9.38168182 2.10439394,9.44993939 2.17316667,9.51690909 C2.17290909,9.52 2.17239394,9.52257576 2.17239394,9.52618182 C2.17162121,9.55271212 2.17136364,9.57872727 2.17136364,9.605 C2.17110606,10.1085606 2.30143939,10.5812121 2.52218182,10.9992576 C2.85342424,11.6274848 3.37965152,12.1367121 3.98624242,12.5086515 C4.21007576,12.6454242 4.44524242,12.7633939 4.68736364,12.862303 C3.66710606,13.1878788 2.82586364,13.2625758 2.13272727,13.2633485 C1.82492424,13.2633485 1.54571212,13.2478939 1.29045455,13.2329545 C1.03519697,13.2172424 0.804151515,13.2005 0.587015152,13.2005 C0.535242424,13.2005 0.4845,13.2017879 0.434272727,13.2038485 C0.312439394,13.2095152 0.200909091,13.2685 0.128272727,13.3658636 C0.0553787879,13.4634848 0.0301363636,13.5868636 0.0587272727,13.7053485 C0.178757576,14.1939697 0.469045455,14.6382879 0.869833333,15.0308333 C1.47359091,15.6191364 2.33440909,16.1038939 3.36857576,16.4505909 C4.40248485,16.7957424 5.6110303,17 6.90843939,17 C8.79981818,17 10.8820606,16.5649545 12.8677121,15.4849394 C14.6820758,14.4958485 16.1914697,12.8762121 17.0991667,11.0706061 C17.4123788,10.4462424 17.754697,9.63951515 18.021803,8.78204545 C18.2883939,7.92431818 18.4820909,7.01945455 18.4826061,6.18362121 C18.4826061,5.9000303 18.4591667,5.62416667 18.4068788,5.36015152 C18.6366364,5.19504545 18.8416667,5.03431818 19.0271212,4.8715303 C19.3946818,4.54904545 19.6847121,4.21574242 19.925803,3.84148485 C20.1674091,3.46671212 20.3605909,3.05536364 20.553,2.56957576 C20.6070909,2.43512121 20.5849394,2.28315152 20.4947879,2.16930303 L20.4947879,2.16930303 Z M18.7842273,3.98315152 C18.5176364,4.26184848 18.1786667,4.53745455 17.7183788,4.85221212 C17.5728485,4.95189394 17.5079394,5.13451515 17.5589394,5.30374242 C17.6346667,5.55539394 17.6717576,5.85443939 17.6717576,6.18387879 C17.6727879,6.8924697 17.4991818,7.73474242 17.2477879,8.54121212 C16.9963939,9.34819697 16.6679848,10.121697 16.3743485,10.7069091 C15.5444394,12.3641515 14.1329242,13.8750909 12.4808333,14.7724848 C10.625,15.7816667 8.67669697,16.1886364 6.90869697,16.1886364 C5.29266667,16.1894091 3.82860606,15.8463182 2.7455,15.3270455 C2.20381818,15.0679242 1.75821212,14.7655303 1.43675758,14.4505152 C1.29457576,14.3119394 1.17892424,14.1718182 1.08593939,14.0322121 C1.13616667,14.0358182 1.18716667,14.0386515 1.24074242,14.042 C1.50012121,14.0579697 1.79839394,14.074197 2.1324697,14.074197 C3.15401515,14.0752273 4.51015152,13.9175909 6.17975758,13.1515606 C6.34666667,13.074803 6.44119697,12.8970758 6.41054545,12.716 C6.38040909,12.5351818 6.23359091,12.3973788 6.05071212,12.3793485 C5.68186364,12.3425152 5.29884848,12.2425758 4.93540909,12.0877727 C4.39037879,11.8564697 3.8919697,11.5012727 3.54063636,11.0726667 C3.36471212,10.8586212 3.22510606,10.6265455 3.12980303,10.3810758 C3.11177273,10.3357424 3.09760606,10.2896364 3.08292424,10.2437879 C3.18518182,10.2842273 3.28769697,10.3215758 3.39072727,10.3509394 C3.72093939,10.4462424 4.02359091,10.4825606 4.40016667,10.4853939 C4.40325758,10.4861667 4.37878788,10.489 4.37878788,10.489 L4.37878788,10.5606061 L4.44472727,10.5606061 C4.6675303,10.5606061 4.85040909,10.3457879 4.85324242,10.1229848 C4.85633333,9.90069697 4.67834848,9.69798485 4.45554545,9.69360606 C3.77837879,9.68098485 3.09863636,9.36571212 2.58039394,8.7805 C2.13015152,8.27075758 1.80019697,7.54310606 1.72163636,6.6055303 C1.84810606,6.62768182 1.9805,6.63772727 2.13195455,6.65163636 C2.33106061,6.66915152 2.56236364,6.68563636 2.84080303,6.71680303 C3.04892424,6.73998485 3.24030303,6.60063636 3.28306061,6.39586364 C3.32581818,6.19109091 3.20578788,5.98683333 3.00590909,5.92501515 C2.74910606,5.84490909 2.55437879,5.72822727 2.39571212,5.58166667 C2.2769697,5.47193939 2.17806061,5.34392424 2.09512121,5.19865152 C1.97071212,4.98125758 1.88339394,4.72368182 1.82878788,4.44395455 C1.77366667,4.16448485 1.75151515,3.86415152 1.75151515,3.56665152 C1.75151515,3.3330303 1.76490909,3.10121212 1.7860303,2.88304545 C1.80612121,2.67260606 1.83316667,2.49642424 1.87077273,2.34239394 C1.9284697,2.11109091 2.00522727,1.92924242 2.13324242,1.72962121 C2.19995455,1.62581818 2.28263636,1.51686364 2.38386364,1.39889394 C2.83668182,1.99466667 3.37578788,2.54072727 3.92339394,3.00359091 C4.59721212,3.57180303 5.27566667,4.01431818 5.83924242,4.267 C6.61866667,4.61421212 7.39474242,4.90604545 8.05851515,5.12369697 C8.39027273,5.23290909 8.69395455,5.32331818 8.95719697,5.39337879 C9.22095455,5.46343939 9.4424697,5.51263636 9.62148485,5.53968182 C9.75568182,5.55977273 9.89013636,5.51212121 9.98131818,5.41192424 C10.0727576,5.3114697 10.1077879,5.17315152 10.0753333,5.0415303 C10.0263939,4.84139394 10.0024394,4.63430303 10.0024394,4.42360606 C10.0011515,3.78687879 10.2224091,3.11460606 10.5770909,2.55566667 C10.7537879,2.27645455 10.9626818,2.02557576 11.1875455,1.82080303 C11.4124091,1.6160303 11.6535,1.45736364 11.8912424,1.35742424 L11.8912424,1.35742424 C12.4952576,1.10293939 13.0985,0.976727273 13.6718636,0.976727273 C14.1517273,0.976727273 14.6099545,1.06456061 15.0362424,1.24074242 C15.4620152,1.41692424 15.8558485,1.68145455 16.2058939,2.04334848 C16.2115606,2.04927273 16.2182576,2.05339394 16.2239242,2.05880303 C16.2347424,2.06884848 16.2455606,2.07837879 16.2574091,2.08713636 C16.2677121,2.09486364 16.2790455,2.10130303 16.2898636,2.108 C16.301197,2.11495455 16.3125303,2.12139394 16.3243788,2.12731818 C16.3367424,2.13298485 16.3485909,2.13736364 16.3609545,2.142 C16.3733182,2.14637879 16.3856818,2.1505 16.3985606,2.15384848 C16.4114394,2.15719697 16.4243182,2.159 16.4369394,2.16106061 C16.4498182,2.16286364 16.4621818,2.16466667 16.4755758,2.16518182 C16.49,2.16595455 16.5041667,2.16543939 16.5188485,2.16492424 C16.5268333,2.16440909 16.5348182,2.16543939 16.5430606,2.16440909 C16.9961364,2.11315152 17.4206212,2.02660606 17.8899242,1.86021212 C18.1451818,1.76980303 18.4138333,1.65595455 18.7100455,1.51377273 C18.6577576,1.68351515 18.6018636,1.83471212 18.5387576,1.96221212 C18.4609697,2.12036364 18.3754545,2.244 18.2737121,2.34393939 C18.1717121,2.44362121 18.0529697,2.5234697 17.8886364,2.58837879 C17.6856667,2.6679697 17.5823788,2.89231818 17.6532121,3.09812121 C17.724303,3.30392424 17.9442727,3.41674242 18.1526515,3.35440909 C18.6528636,3.2045 19.1128939,3.07983333 19.4791667,2.98762121 C19.4647424,3.01518182 19.4508333,3.04428788 19.4369242,3.07107576 C19.2509545,3.42137879 19.0513333,3.70419697 18.7842273,3.98315152 L18.7842273,3.98315152 Z" id="Shape"></path>
                    </g>
                </g>
            </g>
        </g>
    </g>
</svg>
